Coordinates
version=1
nRows=8
nColumns=40
inDegrees=yes

Units are S.I. units (second, meters, Newtons, ...)
If the header above contains a line with 'inDegrees', this indicates whether rotational values are in degrees (yes) or radians (no).

endheader
time	pelvis_tilt	pelvis_list	pelvis_rotation	pelvis_tx	pelvis_ty	pelvis_tz	hip_flexion_r	hip_adduction_r	hip_rotation_r	knee_angle_r	knee_angle_r_beta	ankle_angle_r	subtalar_angle_r	mtp_angle_r	hip_flexion_l	hip_adduction_l	hip_rotation_l	knee_angle_l	knee_angle_l_beta	ankle_angle_l	subtalar_angle_l	mtp_angle_l	lumbar_extension	lumbar_bending	lumbar_rotation	arm_flex_r	arm_add_r	arm_rot_r	elbow_flex_r	pro_sup_r	wrist_flex_r	wrist_dev_r	arm_flex_l	arm_add_l	arm_rot_l	elbow_flex_l	pro_sup_l	wrist_flex_l	wrist_dev_l
     18.52499999999999857891	      9.91702179251525883785	     -1.58794615262683347368	   -179.23753091528323011516	      0.28718966080513430583	      0.87305411931365883849	     -0.95172421296259690493	     29.43905407822169806309	    -31.60535378017594254629	    -28.98574039892260501006	     14.70242603723790075776	      0.25660574238074379538	    -22.63331299871135726676	      0.00000000000000000000	      0.00000000000000000000	     28.92785519027336604836	    -27.28280732322323132166	    -19.80726853388050301419	     14.66625234058881943611	      0.25597439227159968222	    -18.61997566554666505567	      0.00000000000000000000	      0.00000000000000000000	    -35.52229312750412759669	      0.58715951387637932424	     -3.37350623026324702991	     33.67889855540269650191	    -11.32252896518867402165	     44.36883730386755075870	      8.19886425570948595976	     42.14305187050633350054	      0.00000000000000000000	      0.00000000000000000000	     41.91168881905699095114	    -18.72003874736358142172	     59.89173924032391482797	     18.86921323812492801153	     80.88927035306963375660	      0.00000000000000000000	      0.00000000000000000000
     18.53000000000000113687	      9.81442891923642690699	     -1.49969113800516673507	   -179.35192693526028051565	      0.28641136403318534498	      0.87381031701894418262	     -0.95162699227625768827	     28.99123909048906000407	    -31.28087463233591947187	    -28.80942054462844126306	     14.06186599056145958286	      0.24542586050951134546	    -22.95190267446647780503	      0.00000000000000000000	      0.00000000000000000000	     28.50932702969900489620	    -27.33694690471327604087	    -20.12880353275286893222	     14.28939405519005667600	      0.24939697437797081481	    -18.61171690913398535372	      0.00000000000000000000	      0.00000000000000000000	    -35.16609108008161399539	      0.62290670371926937232	     -3.33378283950206233399	     33.26486776983292514842	    -11.27061523695029698899	     43.84972663443469542699	      8.54742185919056041143	     42.57478138590677474440	      0.00000000000000000000	      0.00000000000000000000	     41.44988049673124663741	    -19.02692130732347308708	     59.82534244146971502687	     19.50907535664620340299	     80.88439408680699216347	      0.00000000000000000000	      0.00000000000000000000
     18.53500000000000014211	      9.71589365890182143914	     -1.47355726344591531074	   -179.28941344406376856568	      0.28578995149524533126	      0.87416738342571764786	     -0.95116236971463130612	     28.72377405360449031946	    -31.26815462644551502081	    -29.06296537409667379848	     13.96945234846573136167	      0.24381293818118124350	    -22.92649255228311133692	      0.00000000000000000000	      0.00000000000000000000	     28.37161627681299691517	    -27.29899539547377074200	    -20.07472892419434273847	     14.26295279162679818796	      0.24893548727040434865	    -18.52903834116695591661	      0.00000000000000000000	      0.00000000000000000000	    -34.73738208854549469606	      0.70463265640125338773	     -3.49901706764840092490	     32.93833760696696799641	    -11.24506295277278766775	     43.75123506792085947836	      8.52451212481215314654	     42.62636211853629220059	      0.00000000000000000000	      0.00000000000000000000	     41.04057955737879126445	    -19.08315002438975938048	     59.89332775081050641575	     19.46781385592074187230	     80.90435593831708160906	      0.00000000000000000000	      0.00000000000000000000
     18.53999999999999914735	      9.60736884576501992683	     -1.48232241790351415567	   -179.20785246815140112631	      0.28532859164403784336	      0.87457850796805447491	     -0.95066975461121105972	     28.47432878172820736040	    -31.31812926678971464867	    -29.28173928176108020693	     13.91007692554332386692	      0.24277664155642114663	    -22.92075792312724757949	      0.00000000000000000000	      0.00000000000000000000	     28.27835463148600680938	    -27.21631551455217135072	    -19.89038005442172263315	     14.29327705244980606381	      0.24946474546499936009	    -18.53964073571657067419	      0.00000000000000000000	      0.00000000000000000000	    -34.35686118296027302677	      0.73385883469148494029	     -3.67143477694075892614	     32.77952297937195424993	    -11.30805254806088377961	     43.69216817690288223730	      8.49703672437897949976	     42.64108169981930984704	      0.00000000000000000000	      0.00000000000000000000	     40.79344282964209611464	    -19.09732405753013750882	     59.93805909233768147715	     19.43906056093608825108	     80.93274341886484535280	      0.00000000000000000000	      0.00000000000000000000
     18.54500000000000170530	      9.45930118260833552313	     -1.44211610075765439554	   -179.27860365489974014963	      0.28454484402458724013	      0.87510835156202693152	     -0.95051856989122041064	     28.11880734609768595078	    -31.14639406897537199370	    -29.27795543868863603620	     13.58445782442526095224	      0.23709351613452658847	    -22.96419367785227905188	      0.00000000000000000000	      0.00000000000000000000	     27.89884100454711557404	    -27.23454653496851918248	    -20.20800112586956842620	     14.08198642841485970223	      0.24577702839699608339	    -18.33613479273618551701	      0.00000000000000000000	      0.00000000000000000000	    -33.97350921121937261660	      0.73959090090028800635	     -3.67726705471581416518	     32.42524460544808562190	    -11.25172468724776209115	     43.54877100391132671575	      8.52259316510002662426	     42.76495217225843248343	      0.00000000000000000000	      0.00000000000000000000	     40.36339019765247826399	    -19.17531615763550334464	     59.99010067447391492124	     19.55657464414317914247	     80.97223011806291026460	      0.00000000000000000000	      0.00000000000000000000
     18.55000000000000071054	      9.34111789050075103091	     -1.46394471316249186188	   -179.15647042923259846248	      0.28405322151994255586	      0.87549953577839700891	     -0.94996816433443398431	     27.84887772928468052669	    -31.22575800172675997146	    -29.46346668405927005097	     13.52932614461956717378	      0.23613128679976197466	    -22.97572322197452976411	      0.00000000000000000000	      0.00000000000000000000	     27.80731471347504779601	    -27.12484446208639354836	    -20.03371412298982789935	     14.11064224731190996920	      0.24627716678660480087	    -18.37568851346116716172	      0.00000000000000000000	      0.00000000000000000000	    -33.59845512775137876815	      0.77674762931884244743	     -3.84257234902900179918	     32.28011732358994123615	    -11.33043423840215702114	     43.49986479128354943668	      8.50104372813878939041	     42.78395711784951060963	      0.00000000000000000000	      0.00000000000000000000	     40.10424876330712606887	    -19.18685215250022579880	     60.03804054505621223825	     19.53396230161285984650	     80.99588273941904503772	      0.00000000000000000000	      0.00000000000000000000
     18.55499999999999971578	      9.20891203712028882933	     -1.46852198599361516429	   -179.07152794579567967048	      0.28336966887509934532	      0.87590675220204428086	     -0.94954619907743276208	     27.55893237328246669904	    -31.25764401131831249359	    -29.59533918154402698519	     13.45539469009225719276	      0.23484093949747192331	    -22.98982130704566628765	      0.00000000000000000000	      0.00000000000000000000	     27.64203807988507222149	    -27.05160549954744908518	    -19.96910734265050280101	     14.09334799542024896368	      0.24597532514942607729	    -18.34622024377305038456	      0.00000000000000000000	      0.00000000000000000000	    -33.19981128751576449076	      0.80104747916757657045	     -3.96303928175134112522	     32.05319798454319624170	    -11.35862197308237853122	     43.46377841466664193604	      8.47326703018537052969	     42.81521174831084408652	      0.00000000000000000000	      0.00000000000000000000	     39.73378442405709876084	    -19.20408633654187013917	     60.10644279072830187260	     19.50843118078147142569	     81.03273065745784720093	      0.00000000000000000000	      0.00000000000000000000
     18.55999999999999872102	      8.69275234380075900731	     -1.72053191684381756588	   -179.26487187039637660746	      0.28225455454965897584	      0.87725196794423343505	     -0.94966607260997082385	     26.78496132098878845795	    -31.22028668828200892449	    -29.18981356562433049362	     12.78806707664192288121	      0.22319387545328761568	    -23.29050471448562831256	      0.00000000000000000000	      0.00000000000000000000	     26.41418829148689795261	    -26.73570769981418138173	    -20.68599625985980594578	     13.33662543823717783198	      0.23276802500247043004	    -18.42612468534222713856	      0.00000000000000000000	      0.00000000000000000000	    -33.24142270548814792619	      0.42740688620536337883	     -4.00560017564664327949	     31.72695719818164761250	    -11.43854121732939077560	     43.89728477849504173491	      8.61333644592424363395	     43.63533893853648493177	      0.00000000000000000000	      0.00000000000000000000	     39.42187061244343482258	    -19.52390749381914858418	     60.31667945816661102754	     20.00025598202365628708	     80.98618701298990174564	      0.00000000000000000000	      0.00000000000000000000
